<svg width="347" height="98" viewBox="0 0 347 98" fill="none" xmlns="http://www.w3.org/2000/svg">
<path d="M18.88 78V30.8H0.32V22H47.84V30.8H29.28V78H18.88ZM78.925 34.8C82.3383 34.8 85.3783 35.4667 88.045 36.8C90.765 38.1333 92.8983 40.1867 94.445 42.96C95.9917 45.68 96.765 49.2 96.765 53.52V78H86.765V54.8C86.765 51.0133 85.8583 48.1867 84.045 46.32C82.285 44.4533 79.805 43.52 76.605 43.52C74.2583 43.52 72.1783 44 70.365 44.96C68.5517 45.92 67.1383 47.36 66.125 49.28C65.165 51.1467 64.685 53.52 64.685 56.4V78H54.685V18.64H64.685V46.8L62.525 43.28C64.0183 40.56 66.1783 38.48 69.005 37.04C71.885 35.5467 75.1917 34.8 78.925 34.8ZM109.451 78V35.28H118.971V47.04L117.851 43.6C119.131 40.72 121.131 38.5333 123.851 37.04C126.624 35.5467 130.064 34.8 134.171 34.8V44.32C133.744 44.2133 133.344 44.16 132.971 44.16C132.597 44.1067 132.224 44.08 131.851 44.08C128.064 44.08 125.051 45.2 122.811 47.44C120.571 49.6267 119.451 52.9067 119.451 57.28V78H109.451ZM162.343 78.56C157.596 78.56 153.436 77.6267 149.863 75.76C146.343 73.84 143.596 71.2267 141.623 67.92C139.703 64.6133 138.743 60.8533 138.743 56.64C138.743 52.3733 139.676 48.6133 141.543 45.36C143.463 42.0533 146.076 39.4667 149.383 37.6C152.743 35.7333 156.556 34.8 160.823 34.8C164.983 34.8 168.69 35.7067 171.943 37.52C175.196 39.3333 177.756 41.8933 179.623 45.2C181.49 48.5067 182.423 52.4 182.423 56.88C182.423 57.3067 182.396 57.7867 182.343 58.32C182.343 58.8533 182.316 59.36 182.263 59.84H146.663V53.2H176.983L173.063 55.28C173.116 52.8267 172.61 50.6667 171.543 48.8C170.476 46.9333 169.01 45.4667 167.143 44.4C165.33 43.3333 163.223 42.8 160.823 42.8C158.37 42.8 156.21 43.3333 154.343 44.4C152.53 45.4667 151.09 46.96 150.023 48.88C149.01 50.7467 148.503 52.96 148.503 55.52V57.12C148.503 59.68 149.09 61.9467 150.263 63.92C151.436 65.8933 153.09 67.4133 155.223 68.48C157.356 69.5467 159.81 70.08 162.583 70.08C164.983 70.08 167.143 69.7067 169.063 68.96C170.983 68.2133 172.69 67.04 174.183 65.44L179.543 71.6C177.623 73.84 175.196 75.5733 172.263 76.8C169.383 77.9733 166.076 78.56 162.343 78.56ZM212.109 78.56C207.362 78.56 203.202 77.6267 199.629 75.76C196.109 73.84 193.362 71.2267 191.389 67.92C189.469 64.6133 188.509 60.8533 188.509 56.64C188.509 52.3733 189.442 48.6133 191.309 45.36C193.229 42.0533 195.842 39.4667 199.149 37.6C202.509 35.7333 206.322 34.8 210.589 34.8C214.749 34.8 218.455 35.7067 221.709 37.52C224.962 39.3333 227.522 41.8933 229.389 45.2C231.255 48.5067 232.189 52.4 232.189 56.88C232.189 57.3067 232.162 57.7867 232.109 58.32C232.109 58.8533 232.082 59.36 232.029 59.84H196.429V53.2H226.749L222.829 55.28C222.882 52.8267 222.375 50.6667 221.309 48.8C220.242 46.9333 218.775 45.4667 216.909 44.4C215.095 43.3333 212.989 42.8 210.589 42.8C208.135 42.8 205.975 43.3333 204.109 44.4C202.295 45.4667 200.855 46.96 199.789 48.88C198.775 50.7467 198.269 52.96 198.269 55.52V57.12C198.269 59.68 198.855 61.9467 200.029 63.92C201.202 65.8933 202.855 67.4133 204.989 68.48C207.122 69.5467 209.575 70.08 212.349 70.08C214.749 70.08 216.909 69.7067 218.829 68.96C220.749 68.2133 222.455 67.04 223.949 65.44L229.309 71.6C227.389 73.84 224.962 75.5733 222.029 76.8C219.149 77.9733 215.842 78.56 212.109 78.56ZM242.754 78V22H265.794C270.754 22 274.994 22.8 278.514 24.4C282.088 26 284.834 28.2933 286.754 31.28C288.674 34.2667 289.634 37.8133 289.634 41.92C289.634 46.0267 288.674 49.5733 286.754 52.56C284.834 55.5467 282.088 57.84 278.514 59.44C274.994 61.04 270.754 61.84 265.794 61.84H248.514L253.154 56.96V78H242.754ZM253.154 58.08L248.514 53.04H265.314C269.901 53.04 273.341 52.08 275.634 50.16C277.981 48.1867 279.154 45.44 279.154 41.92C279.154 38.3467 277.981 35.6 275.634 33.68C273.341 31.76 269.901 30.8 265.314 30.8H248.514L253.154 25.68V58.08ZM313.78 78V55.84L316.1 62.24L291.78 22H302.9L322.42 54.4H316.18L335.86 22H346.1L321.78 62.24L324.18 55.84V78H313.78Z" fill="#113255"/>
<path d="M337.892 35.2793C333.701 33.9973 330.72 34.8644 327.008 36.8342L330.893 30.3586C334.77 27.404 337.562 28.0466 341.002 30.6148L337.892 35.2793Z" fill="#F7B136"/>
</svg>
